<?xml version="1.0" encoding="utf-8"?>
<!-- Generator: Adobe Illustrator 26.0.2, SVG Export Plug-In . SVG Version: 6.00 Build 0)  -->
<svg version="1.1" id="Ebene_1" xmlns="http://www.w3.org/2000/svg" xmlns:xlink="http://www.w3.org/1999/xlink" x="0px" y="0px"
	 viewBox="0 0 199.5 200" style="enable-background:new 0 0 199.5 200;" xml:space="preserve">
<style type="text/css">
	.st0{fill:none;}
	.st1{fill:#E5F2E5;}
	.st2{fill:none;stroke:#AAC0AA;stroke-width:0.6667;}
	.st3{clip-path:url(#SVGID_00000070088256146642133950000001925703585118768570_);}
	.st4{fill-opacity:0.49;}
	.st5{fill:#7EB685;}
	.st6{opacity:0.2;enable-background:new    ;}
	.st7{fill:#3F3D56;}
	.st8{fill:#757B75;}
	.st9{fill:#7EB685;stroke:#7EB685;stroke-width:2;}
	.st10{fill:#CCCCCC;}
</style>
<path class="st0" d="M99.9,0.3L99.9,0.3c55,0,99.6,44.6,99.6,99.6v0.1c0,55-44.6,99.6-99.6,99.6h0c-55,0-99.6-44.6-99.6-99.6v-0.1
	C0.3,44.9,44.9,0.3,99.9,0.3z"/>
<path class="st1" d="M99.9,0.3L99.9,0.3c55,0,99.6,44.6,99.6,99.6v0.1c0,55-44.6,99.6-99.6,99.6h0c-55,0-99.6-44.6-99.6-99.6v-0.1
	C0.3,44.9,44.9,0.3,99.9,0.3z"/>
<path class="st2" d="M99.9,0.3L99.9,0.3c55,0,99.6,44.6,99.6,99.6v0.1c0,55-44.6,99.6-99.6,99.6h0c-55,0-99.6-44.6-99.6-99.6v-0.1
	C0.3,44.9,44.9,0.3,99.9,0.3z"/>
<g>
	<defs>
		<rect id="SVGID_1_" x="50" y="49" width="186" height="141"/>
	</defs>
	<clipPath id="SVGID_00000123403779312703428170000006241986139775669165_">
		<use xlink:href="#SVGID_1_"  style="overflow:visible;"/>
	</clipPath>
	<g style="clip-path:url(#SVGID_00000123403779312703428170000006241986139775669165_);">
		<path class="st4" d="M80.2,87.8c0-2.5-1.9-4.6-4.2-4.6H54.9c-2.2,0-4.2,2-4.2,4.6c0,0.7,0.1,1.4,0.4,2.1c0.3,0.6,0.7,1.2,1.2,1.6
			c0.1,0.1,0.2,0.3,0.3,0.4c0.1,0.2,0.1,0.3,0.1,0.5c0,0.2,0,0.4,0,0.6v16.4c0,0.6,0.1,1.2,0.3,1.8c0.2,0.6,0.5,1.1,0.9,1.5
			c0.4,0.4,0.8,0.8,1.3,1c0.5,0.2,1,0.3,1.6,0.3h17.3c1.1,0,2.1-0.5,2.9-1.3c0.8-0.9,1.2-2,1.2-3.2V93c0-0.2,0-0.4,0-0.5
			c0-0.2,0-0.4,0.1-0.5c0.1-0.2,0.2-0.3,0.3-0.4c0.5-0.4,1-1,1.3-1.6C80,89.3,80.2,88.6,80.2,87.8z"/>
		<path class="st5" d="M79.3,87.4c-0.1-0.9-0.5-1.7-1.1-2.3c-0.6-0.6-1.4-0.9-2.2-0.9H54.9c-0.7,0-1.5,0.3-2.1,0.8
			c-0.6,0.5-1,1.2-1.2,2.1c-0.1,0.7-0.1,1.5,0.2,2.2c0.3,0.7,0.7,1.3,1.3,1.7c0.2,0.1,0.3,0.3,0.4,0.5c0.1,0.2,0.1,0.4,0,0.6
			c-0.1,0.3-0.1,0.6-0.1,0.9v16.3c0,0.8,0.3,1.6,0.7,2.3c0.5,0.6,1.1,1.1,1.9,1.2c0.2,0,0.4,0.1,0.6,0.1h17.3c0.3,0,0.6,0,0.9-0.1
			c0.7-0.2,1.3-0.7,1.7-1.3c0.4-0.6,0.6-1.4,0.6-2.2V93c0-0.3,0-0.6-0.1-0.9c0-0.1,0-0.2,0-0.2c0-0.2,0-0.4,0.1-0.5s0.2-0.3,0.3-0.4
			l0,0c0.6-0.3,1-0.9,1.3-1.5C79.3,88.8,79.4,88.1,79.3,87.4z"/>
		<path class="st6" d="M77.3,94.6V93h-2.3v-8.8h-1.4V93h-7.3v-8.8h-1.4V93h-7.3v-8.8h-1.4V93h-2.6v1.5h2.6v4.6h-2.6v1.5h2.6v4.6
			h-2.6v1.5h2.6v6c0.2,0,0.4,0.1,0.6,0.1h0.8v-6.1h7.3v6.1h1.4v-6.1h7.3v6.1h0.5c0.3,0,0.6,0,0.9-0.1v-5.9h2.3v-1.5h-2.3v-4.6h2.3
			v-1.5h-2.3v-4.6H77.3z M57.5,94.6h7.3v4.6h-7.3V94.6z M57.5,105.3v-4.6h7.3v4.6H57.5z M73.6,105.3h-7.3v-4.6h7.3V105.3z
			 M73.6,99.2h-7.3v-4.6h7.3V99.2z"/>
		<path class="st5" d="M80.1,49c0,2.2-0.4,4.3-1.1,6.3c-0.7,2-1.8,3.8-3.2,5.3c-1.4,1.5-3,2.7-4.8,3.6c-1.8,0.8-3.7,1.2-5.6,1.2
			c-1.9,0-3.8-0.4-5.6-1.2c-1.8-0.8-3.4-2-4.8-3.6c-1.4-1.5-2.4-3.3-3.2-5.3c-0.7-2-1.1-4.1-1.1-6.3H80.1z"/>
		<path class="st7" d="M56.2,51.9c0,0.4-0.1,0.8-0.3,0.8s-0.3-0.3-0.3-0.8c0-0.3,0.1-0.6,0.3-0.8C56.1,51.3,56.2,51.6,56.2,51.9z"/>
		<path class="st7" d="M71.5,54.6c0,0.4-0.1,0.8-0.3,0.8s-0.3-0.3-0.3-0.8c0-0.3,0.1-0.6,0.3-0.8C71.4,54.1,71.5,54.3,71.5,54.6z"/>
		<path class="st7" d="M60.3,53.1c0,0.4-0.1,0.8-0.3,0.8s-0.3-0.3-0.3-0.8c0-0.3,0.1-0.6,0.3-0.8C60.1,52.5,60.2,52.8,60.3,53.1z"/>
		<path class="st7" d="M66.3,59.2c0,0.4-0.1,0.8-0.3,0.8c-0.2,0-0.3-0.3-0.3-0.8c0-0.3,0.1-0.6,0.3-0.8
			C66.2,58.6,66.3,58.9,66.3,59.2z"/>
		<path class="st7" d="M59.8,58.4c0,0.4-0.1,0.8-0.3,0.8s-0.3-0.3-0.3-0.8c0-0.3,0.1-0.6,0.3-0.8C59.7,57.9,59.8,58.1,59.8,58.4z"/>
		<path class="st7" d="M75,51.1c0,0.4-0.1,0.8-0.3,0.8c-0.2,0-0.3-0.3-0.3-0.8c0-0.3,0.1-0.6,0.3-0.8C74.9,50.6,75,50.8,75,51.1z"/>
		<path class="st7" d="M69.5,60.8c0,0.4-0.1,0.8-0.3,0.8c-0.2,0-0.3-0.3-0.3-0.8c0-0.3,0.1-0.6,0.3-0.8
			C69.3,60.2,69.4,60.5,69.5,60.8z"/>
		<path class="st8" d="M65.5,66.3c-4.1,0-8-1.8-10.9-5.1C51.6,58,50,53.6,50,49h1.6c0,2,0.4,4,1.1,5.9c0.7,1.9,1.7,3.6,3,5
			c1.3,1.4,2.8,2.6,4.5,3.4c1.7,0.8,3.5,1.2,5.3,1.2c1.8,0,3.6-0.4,5.3-1.2c1.7-0.8,3.2-1.9,4.5-3.4c1.3-1.4,2.3-3.1,3-5
			c0.7-1.9,1.1-3.9,1.1-5.9h1.6c0,4.6-1.6,9-4.5,12.3C73.5,64.5,69.6,66.3,65.5,66.3z"/>
		<path class="st5" d="M101.1,58v-0.6c0-1.3-1.1-2.4-2.4-2.4c-1.3,0-2.4,1.1-2.4,2.4V58c0,1.3,1.1,2.4,2.4,2.4
			C100,60.4,101.1,59.3,101.1,58z"/>
		<path class="st9" d="M148.3,57.4h-38.5c-0.2,0-0.3,0.1-0.3,0.3c0,0.2,0.1,0.3,0.3,0.3h38.5c0.1,0,0.3-0.1,0.3-0.3
			C148.6,57.5,148.5,57.4,148.3,57.4z"/>
		<path class="st5" d="M101.1,98.9v-0.6c0-1.3-1.1-2.4-2.4-2.4c-1.3,0-2.4,1.1-2.4,2.4v0.6c0,1.3,1.1,2.4,2.4,2.4
			C100,101.3,101.1,100.2,101.1,98.9z"/>
		<path class="st9" d="M148.3,98.3h-38.5c-0.2,0-0.3,0.1-0.3,0.3c0,0.2,0.1,0.3,0.3,0.3h38.5c0.1,0,0.3-0.1,0.3-0.3
			C148.6,98.4,148.5,98.3,148.3,98.3z"/>
		<path class="st5" d="M101.1,139.5v-0.6c0-1.3-1.1-2.4-2.4-2.4c-1.3,0-2.4,1.1-2.4,2.4v0.6c0,1.3,1.1,2.4,2.4,2.4
			C100,141.9,101.1,140.8,101.1,139.5z"/>
		<path class="st9" d="M148.3,138.9h-38.5c-0.2,0-0.3,0.1-0.3,0.3c0,0.1,0.1,0.3,0.3,0.3h38.5c0.1,0,0.3-0.1,0.3-0.3
			C148.6,139,148.5,138.9,148.3,138.9z"/>
		<path class="st10" d="M65.3,138.5l-9.2-1.1c0.1-0.5,0-1.1-0.2-1.6c-0.2-0.5-0.5-1-0.8-1.3s-0.8-0.6-1.3-0.7
			c-0.5-0.1-1-0.1-1.5,0.1c-0.5,0.2-0.9,0.5-1.2,0.9c-0.3,0.4-0.6,0.9-0.7,1.4c-0.1,0.5-0.1,1.1,0,1.6c0.1,0.5,0.4,1,0.7,1.4
			c-0.3,0.4-0.6,0.9-0.7,1.5c-0.1,0.5-0.1,1.1,0,1.7c0.1,0.5,0.4,1,0.8,1.4c0.4,0.4,0.8,0.7,1.3,0.8c0.5,0.1,1,0.2,1.5,0
			c0.5-0.1,0.9-0.4,1.3-0.8c0.4-0.4,0.6-0.9,0.8-1.4c0.1-0.5,0.2-1.1,0.1-1.7l9.2-0.9V138.5z"/>
		<path class="st5" d="M74.6,145.6c3.6,1,7.2-1.9,7.4-6c0-0.1,0-0.2,0-0.3c0-0.1,0-0.2,0-0.3c-0.2-4.2-3.8-7-7.4-6l-12.2,3.4
			c-0.4,0-0.7,0.1-1,0.2c-0.3,0.2-0.6,0.4-0.9,0.7c-0.2,0.3-0.4,0.6-0.6,1c-0.1,0.4-0.2,0.8-0.2,1.2c0,0.4,0.1,0.8,0.2,1.2
			c0.1,0.4,0.3,0.7,0.6,1c0.2,0.3,0.5,0.5,0.9,0.7c0.3,0.2,0.7,0.2,1,0.2L74.6,145.6z"/>
	</g>
</g>
</svg>
