<?xml version="1.0" encoding="utf-8"?>
<!-- Generator: Adobe Illustrator 26.0.2, SVG Export Plug-In . SVG Version: 6.00 Build 0)  -->
<svg version="1.1" id="Ebene_1" xmlns="http://www.w3.org/2000/svg" x="0px" y="0px"
     viewBox="0 0 1005.8 244.8" style="enable-background:new 0 0 1005.8 244.8;" xml:space="preserve">
<style type="text/css">
	.st0{fill:#3F4B3F;}
</style>
    <path class="st0" d="M182.4,119.1c3.5-1.1,6.4-1.9,9.3-2.9c1.7-0.6,3.2-0.5,4.8,0.3c1.6,0.9,2.6,2.1,2.4,4c-0.2,2.2-0.4,4.5-0.8,6.7
	c-1.3,8.5-2.8,16.9-4.1,25.4c-2.1,13.7-4,27.3-6.1,41c-1.1,7.3-2.3,14.6-3.7,21.9c-1.2,6.4-3.3,12.4-6.6,17.9
	c-2.6,4.2-5.7,8.1-9.7,11c-3.5,2.6-7.6,4.2-12,4.7c-3.6,0.4-7.1,0.6-10.7,0.6c-23.2,0.1-46.3,0-69.5,0c-7.9,0-15.8,0-23.7-0.2
	c-6.6-0.2-13.1-0.3-19.6-1.7c-9.5-2-15.3-7.8-18.5-16.7c-2.8-7.6-4-15.5-4.8-23.4c-1.3-12.9-2.6-25.9-3.9-38.8
	c-1-10.3-2.1-20.5-3.2-30.8c-0.6-5.5-1.2-10.9-1.8-16.4c-0.5-3.9,0-5,3.4-6.8c1.2-0.6,1.5-1.3,1.1-2.6c-2.1-5.8-1.8-11.6,0.4-17.3
	c2.4-6.2,6.1-11.4,11.6-15.2c0.3-0.2,0.6-0.6,1.1-1c-1.5-1.1-2.9-2.1-4.3-3c-0.7-0.5-1.4-0.9-2-1.5C8,71.3,9.6,67,12.9,65.5
	c0.8-0.4,1.9-0.5,2.8-0.3c4,0.7,7,3.3,10,5.8c1.2,1,2.2,2.6,3.5,3s2.9-0.4,4.4-0.6c7.5-1.1,14.9-0.3,21.8,2.8
	c4.8,2.1,9.2,5.1,12.3,9.5c0.7,0.9,1.4,1.8,2.2,2.8c1.7-4.9,3.2-9.6,4.8-14.2c0.7-2.2,0.6-3.7,0-6.2c-0.9,0.2-1.7,0.5-2.6,0.7
	c-3.2,0.8-5.5-0.4-6.8-3.5c-0.8-2.1-1.4-4.3-2.1-6.4c-1.2-4.2-2.4-8.3-3.6-12.5c-1.1-3.8,0.2-6.2,4-7.5c1.3-0.4,2.6-1.1,3.9-1.7
	c12.9-5.8,26.1-10.8,40.2-13c3.3-0.5,5.2,0.5,6.4,3.7c1.6,4.6,3.2,9.3,4.8,13.9c0.5,1.6,1.2,3.1,1.7,4.7c0.9,3.2,0.5,4.4-2.2,6.4
	c-0.8,0.6-1.6,1.1-2.5,1.6c0.8,2.7,7.4,8.5,12.3,10.7c1.4-3.2,2.9-6.3,4.3-9.5c0.5-1.1,0.9-2.2,1.4-3.2c3.6-7.2,7-14.4,10.8-21.4
	c1.9-3.6,4.3-7.1,6.6-10.4c2.3-3.3,4.7-6.5,7.3-9.4c3.9-4.4,8.7-7.5,14.1-9.6c6-2.3,12.4-2.4,18.3,0.1c5.6,2.4,9,7,10.4,13.2
	c1.6,7.1,1.4,14.3,0.6,21.4c-0.8,6.8-2.1,13.5-3.3,20.2c-1.9,10.6-4.4,21-7.1,31.4c-2.6,9.8-5.8,19.5-8.8,29.1
	C182.7,117.4,182.6,117.9,182.4,119.1L182.4,119.1z M187.1,129.1c-0.5-0.1-0.7-0.3-0.9-0.3c-0.6,0-1.2,0-1.7,0.1
	c-7,1.5-13.9,1-20.9,0c-6.5-1-13-2.2-19.4-3.5c-11.2-2.2-22.2-1.4-33.1,1.7c-4.9,1.4-9.8,2.6-14.8,3.8c-6.8,1.7-13.7,2.2-20.6,2.2
	c-6.7-0.1-13.2-1.3-19.6-3.3c-5.2-1.6-10.3-3.4-15.4-5c-6.2-1.9-12.6-3.3-19.1-3.1c-3.7,0.1-7.2,1-10.7,2.4c-1,0.4-1.6,1.1-1.4,2.3
	c0.9,5.9,1.8,11.8,2.7,17.8c1.3,8.7,2.5,17.4,3.7,26.2c1.1,8.3,2.1,16.7,3.2,25c0.9,7,1.6,14.1,2.5,21.1c0.5,3.7,1.3,7.4,2.2,11
	c1.6,6.5,7.5,10.2,13.2,10.2c1.8,0,3.7,0.1,5.5,0.1c3.4-0.1,6.8-0.5,10.2-0.5c16.4-0.2,32.8-0.3,49.2-0.4c9,0,18,0.2,27,0.4
	c5.8,0.1,11.6,0.4,17.5,0.5c2.9,0,5.8-0.1,8.7-0.5c5.7-0.8,10.1-3.6,12.9-8.8c0.2-0.4,0.4-0.7,0.7-1c2.8-3.4,3.9-7.6,4.8-11.7
	c1.5-6.8,2.3-13.8,3.4-20.7c1.7-10.8,3.5-21.5,5.2-32.3c1.6-10.3,3.2-20.6,4.8-30.8C187,130.9,187,130.1,187.1,129.1L187.1,129.1z
	 M189.2,49.9c0.2-1.1,0.5-2.1,0.7-3c1.4-7,2.6-14.1,2.3-21.3c-0.1-2.9-0.5-5.8-1.3-8.6c-0.9-3.2-3.1-5.4-6.5-6.2s-6.6,0.1-9.7,1.4
	c-6.3,2.8-10.8,7.8-14.5,13.4c-3.3,5-6.2,10.2-9.1,15.4c-4.2,7.6-8.2,15.4-11.5,23.5c-2.4,5.8-5,11.6-7.1,17.6
	c-3.5,10-6.6,20.1-9.8,30.1c-0.2,0.5-0.1,1.1-0.2,1.8c1.5,0,2.9,0.1,4.1,0c6.2-0.7,12.3-0.1,18.4,0.9c7.2,1.3,14.4,2.7,21.6,4.1
	c2.4,0.4,2.7,0.3,3.6-1.9c0.9-2.2,1.6-4.4,2.4-6.6c0.4-1,0.8-1.9,1.2-3.2c-2.4-0.5-4.5-1-6.6-1.3c-5.1-0.8-10.1-0.3-15.2,0.2
	c-2.3,0.3-4.6,0.3-7,0.3c-1.4,0-2.3-0.9-2.8-2.2s0.2-2.1,1.1-2.8c1.3-1,2.6-2.1,4-2.9c5.4-2.9,11.4-3.6,17.5-3.2
	c4.1,0.2,8.2,1,12.4,1.5c1.6-3,4.3-11.9,4.2-14.2c-6.8-0.9-13.6-0.6-20.4,0.6c-2.6,0.4-5.2,1-7.9,1.5c-1.8,0.3-3.1-0.4-3.9-1.6
	c-0.6-1.1-0.4-2.5,1-3.8c1.2-1.1,2.6-2.1,4.1-2.7c7.7-3.4,15.8-4.5,24.2-3.7c1.9,0.2,3.8,0.6,5.7,0.2c1-4.3,1.9-8.4,2.9-12.7
	c-0.8-0.2-1.2-0.4-1.7-0.5c-5.2-0.9-10.3-0.5-15.4,0.4c-3,0.5-6.1,1-9.1,1.7c-1.8,0.4-4.6-1.2-5.3-3c-0.6-1.5,0.1-2.7,2.2-4.2
	c7.1-5,15.1-6.7,23.7-5.9C184.1,49.2,186.6,49.7,189.2,49.9L189.2,49.9z M80.4,93.8c0.6-0.1,0.9-0.1,1.1-0.2
	c0.9-0.4,1.8-0.8,2.7-1.3c5.1-2.6,10.5-3.6,16.2-2.8c3.2,0.4,6.4,0.6,9.7,0.7c5.2,0.2,8.5-3.3,11.2-7c1.7-2.3,2.2-5.5,3.3-8.3
	c-0.8-0.7-1.5-1.4-2.2-2.1c-3.3-3.4-7.7-5.2-11.5-7.8c-2.2-1.4-3.6-3.1-4.2-5.6c-0.2-0.9-0.6-1.7-0.9-2.6c-0.8-2.1-1.9-2.7-4.1-2.2
	c-0.6,0.1-1.1,0.3-1.7,0.5c-5.2,1.9-10.4,3.9-15.9,5.9c0.4,1.5,0.7,3,1.2,4.5c1.1,3.3,1.2,6.7,0,10c-0.9,2.7-1.8,5.3-2.8,8
	C81.4,86.9,81,90.1,80.4,93.8L80.4,93.8z M63.6,120.9c0.3-0.7,0.6-1.2,0.7-1.8c0.9-4.4,1.3-8.8,0.6-13.2c-0.9-5.3-2.8-10.2-6.8-14.1
	c-2.7-2.6-6-4.1-9.5-5.3c-4.4-1.6-9-1.4-13.4-0.8c0.4,2.4,0.8,4.7,1.1,7c0.2,1.2-0.3,2-1.3,2.8c-2.7,2-5.7,1.3-7.2-1.8
	c-0.7-1.5-1.5-3-2.3-4.5c-8.3,3.9-11.5,15.5-9.7,22c0.8,0,1.6,0.1,2.4,0c4.6-0.6,9.2,0,13.7,0.8c7.1,1.2,13.9,3.2,20.7,5.6
	C56.2,118.8,59.9,119.8,63.6,120.9L63.6,120.9z M115.9,100.1c-5.3,1.1-10.1,0.1-14.9-0.5c-4.7-0.6-9.2-0.1-13.5,2.3
	c-2.6,1.5-4.5,3.7-6.4,5.8c-0.4,0.5-0.5,1.6-0.4,2.3c0.4,2.4,0.8,4.8,1.4,7.1c0.4,1.8,1.1,3.4,1.7,5.1c0.8-0.1,1.3,0,1.8-0.1
	c7.9-1.8,15.7-3.6,23.6-5.5c1.7-0.4,2.8-1.4,3.1-3.2c0.3-1.3,0.8-2.6,1.1-3.8C114.1,106.6,114.9,103.6,115.9,100.1L115.9,100.1z
	 M105.7,34.2c-12.9,2.2-24.7,7-36.4,12.7c1.2,3.4,1.7,6.9,3.6,9.7c11.3-6.4,23.8-8.2,36.2-11.3C108.4,41.6,106.7,38.1,105.7,34.2z"
    />
    <path class="st0" d="M888.1,113.6c-1.2,28.9-2.3,57.6-3.5,86.6H861c1.8-16,3.5-32,3.8-48c-1.3-0.8-2,0-2.4,0.9
	c-1.1,2.4-2.2,4.8-3.3,7.2c-0.3,0.6-0.5,1.2-0.8,1.8c-4.5,9.4-9.1,18.7-13.5,28.2c-0.7,1.4-1.5,1.8-2.9,1.8
	c-5.7-0.1-11.3-0.1-17-0.1c-0.2,0-0.5-0.1-1-0.2c-0.5-2.7-1-5.4-1.4-8.2c-1.6-9.7-3.2-19.4-4.8-29.1c-0.1-0.5-0.2-1-0.3-1.5
	c-0.2-1.1-0.9-1.2-1.9-1c-4.5,15.7-6.6,31.9-9.2,48.1h-22.1c1.9-9.6,4.2-19.1,6.2-28.7c2.1-9.6,4.2-19.2,6.3-28.8s4.2-19.1,6.4-28.7
	c1.9-0.6,26.9-0.8,30.7-0.3c0.8,7.3,1.6,14.7,2.5,22s1.7,14.6,2.8,22.1c1.3-0.2,1.9-0.7,2.3-1.6c3.3-8.5,6.7-17,10-25.5
	c2-5,3.8-10.1,5.7-15.2c0.5-1.4,1.2-2,2.7-2c8.9,0.1,17.8,0,26.8,0C887,113.4,887.4,113.4,888.1,113.6L888.1,113.6z"/>
    <path class="st0" d="M238,200.1c0.8-4.4,1.4-8.6,2.2-12.7c1.9-9.6,2.9-19.3,3.8-29c0.9-9.2,1.9-18.4,2.8-27.6
	c0.6-5.7,1.1-11.4,1.7-17.5c1,0,1.9,0,2.8,0c8.2-0.1,16.5,0.1,24.7-0.2c5.3-0.2,10.6-0.3,16,0.2c9.2,0.9,17.3,4,23.4,11.3
	c3.9,4.7,6.2,10.3,6.8,16.4c1,10.3,0.2,20.5-3.4,30.3c-2.4,6.6-6.1,12.4-10.9,17.5c-2.9,3.1-6.5,5.2-10.2,7.2
	c-6.4,3.3-13.2,5.1-20.4,5.3c-12.2,0.3-24.3,0.2-36.5-0.7C240,200.4,239.1,200.4,238,200.1L238,200.1z M266.2,180.6
	c4.7,0.6,9,1.4,13.5,0.9c4.2-0.4,7.5-2.4,9.9-6c1.7-2.6,2.8-5.5,3.5-8.5c1.5-7.1,1.8-14.2,1.2-21.4c-0.1-1.9-0.6-3.8-1.2-5.6
	c-1.1-3.1-3.1-5.1-6.4-6.1c-3.3-0.9-6.6-0.2-9.9-0.3c-1.4,0-2.8,0.2-4.3,0.3C270.7,149.8,267.3,164.9,266.2,180.6L266.2,180.6z"/>
    <path class="st0" d="M694.9,174.4h-9.2c-0.8,8.6-1.5,17.1-2.3,25.8h-26.5c0.1-0.9,0.2-1.9,0.3-2.9c1.3-7.3,2.8-14.6,3.9-21.9
	c0.9-5.7,1.3-11.4,1.9-17.1c1-9.4,1.9-18.9,2.8-28.3c0.4-4.1,0.8-8.3,1.2-12.4c0.1-1.3,0.4-2.6,0.5-4c0.9-0.1,1.7-0.1,2.4-0.1
	c12.3,0,24.7,0,37,0c5.5,0,10.8,0.7,15.8,2.9c7.2,3.1,11.6,8.5,12.6,16.4c1.2,9.3-1.4,17.6-7.3,24.9c-2.3,2.9-5.1,5.3-8,7.5
	c-0.6,0.5-1.3,1-2,1.6c0.7,1.3,1.2,2.5,1.9,3.6c4,7,8,14,12,21c0.2,0.4,0.5,0.9,0.8,1.3c1.3,2.4,0.8,3.9-1.8,4.7
	c-5.4,1.7-11,2.5-16.6,3.4c-2.1,0.3-4.3,0.6-6.4,0.8c-2.4,0.3-3.3-0.1-4.5-2.2c-0.4-0.8-0.7-1.7-1-2.6c-2.3-6.8-4.5-13.6-6.8-20.4
	C695.4,175.8,695.2,175.1,694.9,174.4L694.9,174.4z M688.3,154.8c2.5,0.2,4.8,0.2,7.1,0.5c3.3,0.4,5.7-1.1,7.9-3.4
	c3.9-4,4.3-8.9,3.4-14c-0.5-2.9-2.6-5-5.5-5.6c-2.4-0.5-5-0.4-7.4-0.4c-2.1,0-2.2,0.1-2.5,2.2C690.3,140.9,689.4,147.8,688.3,154.8
	L688.3,154.8z"/>
    <path class="st0" d="M907.7,113.6c0.8,0,1.6-0.1,2.4-0.1c19.1,0,38.2,0,57.2,0c2.9,0,3.7,0.7,3.1,3.3c-1.1,5.5-2.3,10.9-3.5,16.4
	c-0.1,0.5-0.4,0.9-0.6,1.5c-11.5-0.2-23.1-1.1-34.7-0.7c-0.6,4.1-1.1,8.1-1.7,12.1c0.5,0.1,0.8,0.3,1.2,0.3
	c7.9-0.1,15.8-0.2,23.7-0.4c2.5-0.1,3.6,0.8,3.1,3.2c-1.1,5.8-2.4,11.6-3.6,17.4c0,0.1-0.2,0.3-0.4,0.7c-8.8-0.2-17.8-0.3-26.9-0.5
	c-1.5,4.2-1.3,8.4-1.8,12.7c0.7,0.1,1.2,0.3,1.6,0.3c10-0.2,20-0.5,30-0.7c0.7,0,1.3-0.1,2-0.1c1.9,0,2.7,0.8,2.6,2.8
	c0,0.9-0.3,1.8-0.5,2.7c-1.1,5.2-2.2,10.4-3.2,15.6c-2,0.5-56.9,0.7-60.8,0.2c0.4-2.3,0.7-4.7,1.2-7c2.2-11.5,3.8-23.1,4.9-34.8
	c1.1-11.9,2.4-23.7,3.6-35.5C907,119.8,907.4,116.8,907.7,113.6L907.7,113.6z"/>
    <path class="st0" d="M653.9,134.6c-11.6-0.3-23.1-0.6-34.8-0.9c-0.6,4.3-1.2,8.3-1.8,12.5c0.7,0.1,1.2,0.3,1.8,0.3
	c7.8-0.1,15.7-0.2,23.5-0.4c2.4-0.1,3.4,0.6,3,2.7c-1.1,6.1-2.5,12.2-3.8,18.5c-9.2-0.2-18.3-0.3-27.2-0.5
	c-1.1,3.5-1.8,9.2-1.4,12.8c0.6,0.1,1.2,0.2,1.9,0.2c9.8-0.2,19.7-0.5,29.5-0.8c0.2,0,0.5,0,0.8-0.1c3.4-0.2,4.3,0.8,3.6,4.1
	c-0.7,3.6-1.5,7.2-2.2,10.8c-0.4,2.1-0.9,4.2-1.3,6.4h-60.8c0.5-2.8,0.8-5.4,1.3-7.9c2.4-12,3.8-24.1,5-36.4
	c0.9-10.4,2.2-20.7,3.2-31c0.2-2.4,0.4-4.8,0.7-7.2c0.1-1.3,0.3-2.6,0.5-4.2c0.9,0,1.8,0,2.6,0c18.8,0,37.7,0,56.5,0
	c3.7,0,4.2,0.6,3.5,4.3c-1,5.1-2.1,10.1-3.2,15.1C654.3,133.4,654.1,133.8,653.9,134.6L653.9,134.6z"/>
    <path class="st0" d="M336.8,113.8c0.9-0.1,1.8-0.3,2.6-0.3c19.1,0,38.1,0,57.2,0c2.6,0,3.3,0.8,2.8,3.4c-0.8,4.3-1.8,8.6-2.7,13
	c-0.2,0.8-0.4,1.6-0.5,2.4c-0.5,2.4-0.5,2.5-2.9,2.4c-4.6-0.1-9.1-0.4-13.7-0.5c-6-0.1-12-0.2-18-0.2c-0.2,0-0.5,0.1-1,0.2
	c-0.6,3.9-1.1,7.9-1.8,12.1c0.6,0.1,1.1,0.3,1.5,0.3c7.9-0.1,15.8-0.2,23.7-0.4c2.3-0.1,3.3,0.6,2.9,2.9c-1.1,6.1-2.4,12.1-3.7,18.3
	c-9.2-0.2-18.2-0.3-27.3-0.5c-1.2,4.3-1.1,8.5-1.7,12.7c0.8,0.1,1.3,0.3,1.9,0.3c10-0.2,20-0.4,30-0.8c4.2-0.1,5,0.7,4.1,4.7
	c-1.1,5.4-2.3,10.9-3.5,16.3c-1.9,0.5-58,0.6-60.8,0.1c0.5-3.2,1-6.4,1.6-9.5c2.1-10.7,3.4-21.5,4.4-32.4
	c0.9-10.4,2.2-20.9,3.2-31.3c0.4-4,0.8-7.9,1.1-11.9C336.5,114.6,336.6,114.2,336.8,113.8L336.8,113.8z"/>
    <path class="st0" d="M519.3,200.1c-2.2-14.5-4.4-28.8-6.6-43.2c-2.2-14.3-4.3-28.6-6.5-43.2c0.8-0.1,1.6-0.3,2.4-0.3
	c7.8,0,15.5,0,23.2,0c0.2,0,0.5,0.1,1,0.2c0.8,5.2,0.4,10.5,1,15.8s1,10.6,1.4,15.9c0.4,5.2,0.7,10.5,1.3,15.7s0.5,10.6,1.8,15.7
	c0.2,0.1,0.4,0.1,0.6,0.1c0.5-0.8,1.1-1.6,1.5-2.4c1.3-3.2,2.5-6.4,3.7-9.6c2-5.4,4-10.7,6.2-16.1c4.2-10.6,8.5-21.1,11.2-32.2
	c0.8-3.1,0.9-3.1,4-3.1c6.3,0,12.7,0,19,0c1.1,0,2.1,0,3.7,0c-12.3,29.3-24.7,58-36.7,86.8L519.3,200.1L519.3,200.1z"/>
    <path class="st0" d="M398,200.1c0-0.7,0-1.2,0.1-1.8c1.2-6.9,2.5-13.8,3.6-20.7c0.8-5.1,1.3-10.2,1.8-15.4
	c0.8-7.8,1.6-15.6,2.4-23.4c0.8-7.5,1.5-15.1,2.2-22.6c0.1-0.9,0.2-1.8,0.4-2.8h26.9c-2.9,21.6-6.6,43-9.2,64.8c1.4,0,2.4,0,3.4,0
	c6.6,0,13.2,0,19.7,0c0.5,0,1,0,1.5,0c1.6,0.2,2.3,1,2.2,2.7c0,0.7-0.2,1.5-0.4,2.2c-1,5.2-2,10.4-3,15.7c-0.1,0.3-0.2,0.6-0.3,1.1
	L398,200.1L398,200.1z"/>
    <path class="st0" d="M1005.5,230.6h-50.2V219c2.6-0.2,5.2-0.1,7.7-0.1c2.6,0,5.2,0,7.8,0h23.1V94.9h-38.5V83.5
	c1.6-0.5,46.5-0.8,50.1-0.2C1005.9,84.9,1006.1,227.4,1005.5,230.6L1005.5,230.6z"/>
    <path class="st0"
          d="M802.4,219v11.8c-16.7,0.1-33.3,0-49.9,0c-0.6-1.9-0.8-143.3-0.2-147.7h50.2v11.7h-38.4V219H802.4L802.4,219z"
    />
    <path class="st0" d="M485.8,200.1h-26.6c0.5-3.1,0.9-6.1,1.5-9c2.5-11.8,3.8-23.8,4.8-35.9c0.5-5.2,1.1-10.4,1.7-15.6
	c0.5-4.6,0.8-9.1,1.3-13.7c0.3-3.6,0.7-7.1,1-10.7c0.2-1.7,0.4-1.9,2.2-1.9c7.9,0,15.8,0,23.7,0c0.3,0,0.6,0.1,1.2,0.2
	c-0.3,2.2-0.5,4.3-0.8,6.4c-1.2,8.3-2.5,16.6-3.7,24.9c-1.3,8.7-2.7,17.4-3.9,26.2c-0.7,5.2-0.9,10.4-1.4,15.7
	C486.6,191.2,486.2,195.6,485.8,200.1L485.8,200.1z"/>
    <path class="st0" d="M78.9,203.1c0.1,1.1,0.1,1.7,0.2,2.4c0.4,6.8,6.8,11.1,12.4,10.1c2.4-0.4,4.7-1,7-1.8c3.1-1,6-2.4,9.1-3.4
	c7-2.4,13.7-5.6,20.3-8.9c6.7-3.3,13.1-7.2,19.6-10.9c1.7-1,3.1-2.3,4-4c0.3-0.6,0.6-1.2,0.7-1.9c0.3-4.9-4.6-8.3-8.9-6.1
	c-8.3,4.4-16.6,8.8-24.9,13.2c-3.8,2-7.7,4-11.6,5.9c-2.7,1.3-5.5,2.4-8.2,3.6c-1.3,0.6-2.6,1.1-3.9,1.5c-2.5,0.8-4-0.6-3.4-3.1
	c0.1-0.6,0.3-1.3,0.6-1.9c2.8-5.2,5.6-10.4,8.4-15.6c1.7-3.2,3.6-6.4,5.1-9.7c1.3-2.8,2.1-5.8,3.1-8.7c1-3.3-1.4-9.1-5.1-11.1
	c-2.7-1.4-5.6-2.2-8.7-2.1c-8.4,0.3-16.4,2.7-24,6.2c-4,1.9-7.8,4.1-11.6,6.4c-4.7,2.8-8.8,6.3-12.2,10.6c-1.2,1.4-2.1,3.2-2.7,5
	c-0.8,2.3,1.4,4.6,3.6,3.9c2.3-0.7,4.5-1.7,6.5-2.9c2.8-1.7,5.3-3.8,8-5.6c4.4-3,9.2-5.3,14.2-7.2c5.1-2,10.3-3.2,15.6-4.2
	c1.5-0.3,2.8,0.3,3.4,1.5c0.6,1.2,0.7,2.6-0.1,3.8c-1.6,2.6-3.4,5.1-4.9,7.8c-3.1,5.8-6.2,11.6-9.2,17.4
	C79.9,196.6,79.2,200.1,78.9,203.1L78.9,203.1z"/>
    <path class="st0" d="M45.2,100.2c1.7-0.1,3.1-1.8,3.1-3.6c-0.1-1.6-1.4-2.9-3.1-2.9c-1.8,0.1-3.4,1.9-3.2,3.7
	C42,98.9,43.6,100.2,45.2,100.2L45.2,100.2z M55.2,104.2c-1.8,0-3.3,1.4-3.4,3.2c-0.1,1.4,1.5,3.1,2.9,3.1c1.3,0,3.6-1.8,3.7-2.9
	C58.5,106.1,56.9,104.4,55.2,104.2z M31.1,104.1c0-2.1-1-3.3-2.8-3.3c-1.7,0-3.3,1.6-3.4,3.3c0,1.6,1.3,2.9,3,3
	C29.6,107.4,31.1,105.9,31.1,104.1L31.1,104.1z"/>
    <path class="st0" d="M78.9,203.1c0.3-3.1,1-6.5,2.6-9.7c3-5.9,6-11.7,9.2-17.4c1.5-2.7,3.2-5.2,4.9-7.8c0.8-1.3,0.7-2.6,0.1-3.8
	c-0.6-1.2-1.9-1.8-3.4-1.5c-5.3,1.1-10.5,2.3-15.6,4.2c-5,1.9-9.8,4.3-14.2,7.2c-2.7,1.8-5.2,3.9-8,5.6c-2,1.2-4.3,2.2-6.5,2.9
	s-4.4-1.6-3.6-3.9c0.6-1.8,1.5-3.6,2.7-5c3.4-4.2,7.5-7.8,12.2-10.6c3.8-2.2,7.6-4.5,11.6-6.4c7.6-3.5,15.6-5.9,24-6.2
	c3-0.1,6,0.6,8.7,2.1c3.7,2,6.1,7.8,5.1,11.1c-0.9,2.9-1.8,5.9-3.1,8.7c-1.5,3.3-3.4,6.5-5.1,9.7c-2.8,5.2-5.6,10.4-8.4,15.6
	c-0.3,0.6-0.5,1.2-0.6,1.9c-0.6,2.5,0.9,3.8,3.4,3.1c1.3-0.4,2.6-1,3.9-1.5c2.8-1.2,5.5-2.3,8.2-3.6c3.9-1.9,7.8-3.8,11.6-5.9
	c8.3-4.4,16.6-8.9,24.9-13.2c4.3-2.3,9.2,1.1,8.9,6.1c0,0.6-0.4,1.3-0.7,1.9c-0.9,1.7-2.3,3-4,4c-6.5,3.7-12.9,7.6-19.6,10.9
	c-6.6,3.3-13.3,6.5-20.3,8.9c-3.1,1-6,2.4-9.1,3.4c-2.3,0.8-4.6,1.4-7,1.8c-5.6,1-12-3.4-12.4-10.1C79.1,204.9,79,204.2,78.9,203.1
	L78.9,203.1z"/>
    <path class="st0" d="M45.2,100.2c-1.6,0.1-3.2-1.3-3.3-2.7c-0.1-1.8,1.5-3.6,3.2-3.7c1.7-0.1,3.1,1.2,3.1,2.9
	C48.3,98.4,46.8,100.1,45.2,100.2L45.2,100.2z"/>
    <path class="st0" d="M55.2,104.2c1.7,0,3.3,1.8,3.2,3.5c-0.1,1.1-2.4,2.9-3.7,2.9c-1.4,0-3-1.7-2.9-3.1
	C51.9,105.8,53.4,104.2,55.2,104.2z"/>
    <path class="st0" d="M31.1,104.1c0,1.7-1.5,3.1-3.2,3.1c-1.7-0.1-3-1.5-3-3c0-1.7,1.6-3.3,3.4-3.3C30.2,100.9,31.2,102.1,31.1,104.1
	L31.1,104.1z"/>
</svg>
